<?xml version="1.0" encoding="UTF-8" standalone="no"?>
<svg width="426.69656" height="405.39139" viewBox="0 0 426.69656 405.39139" version="1.1" id="svg1"
    xmlns="http://www.w3.org/2000/svg">
    <style>
      path {
        fill: black;
      }
      @media (prefers-color-scheme: dark) {
        path { fill: white; }
      }
    </style>
    <g transform="translate(-42.653439,-63.967058)">
        <path opacity="1"
            d="M 134.42,75.26 C 145.07,67.89 158.01,63.94 170.96,64 248.64,63.99 326.32,64.01 404,63.99 c 21.23,-0.59 42.25,10.24 54.12,27.83 7.1,10.3 11.04,22.72 11.19,35.23 0.07,14.53 -0.01,29.06 0.04,43.59 -35.56,0.07 -71.12,0 -106.68,0.03 -0.01,73.44 0,146.88 0,220.31 -0.1,10.68 0.73,21.61 -2.48,31.96 -5.92,21.33 -23.73,38.81 -45.19,44.27 -9.77,2.78 -20,2.03 -30.03,2.12 -59.32,0 -118.65,0.01 -177.97,0 -14.02,0.09 -28.01,-4.57 -39.13,-13.11 -14.96,-11.3 -24.51,-29.45 -25.13,-48.21 -0.17,-8 -0.03,-16.01 -0.07,-24.01 21.33,-0.01 42.67,0.01 64,-0.01 -0.01,-81.64 0,-163.29 0,-244.94 0.06,-8.04 -0.42,-16.18 1.34,-24.09 3.24,-15.99 12.95,-30.5 26.41,-39.7 m 6.23,22.42 c -8.04,7.88 -12.72,19.06 -12.64,30.33 -0.02,85.33 0,170.66 -0.01,255.99 42.67,0 85.33,0 128,0 0.02,7.33 -0.04,14.66 0.02,21.99 0.09,9.05 3.2,18.02 8.71,25.19 7.14,9.45 18.37,15.69 30.18,16.64 12.06,1.15 24.49,-3.2 33.2,-11.62 8.47,-7.99 13.36,-19.58 13.22,-31.22 0.01,-92.35 -0.01,-184.7 0.01,-277.04 -0.09,-15.58 5.9,-30.95 16.16,-42.62 -62.17,0.03 -124.33,0 -186.5,0.02 -11.23,-0.14 -22.41,4.4 -30.35,12.34 m 247.34,-8.66 c -12.19,5.34 -21.51,16.7 -24.32,29.71 -1.9,10.08 -0.65,20.41 -1,30.6 28.44,0.01 56.88,0 85.33,0 -0.08,-8.13 0.16,-16.27 -0.13,-24.4 -0.81,-13.12 -8.22,-25.58 -19.26,-32.69 -11.84,-7.86 -27.69,-9.09 -40.62,-3.22 M 63.94,405.33 c -0.08,16.61 10.35,32.64 25.67,39.11 6.37,2.89 13.44,3.78 20.38,3.57 46.95,-0.02 93.9,-0.02 140.85,0 -10.3,-11.69 -16.2,-27.08 -16.21,-42.68 -56.9,0 -113.8,0 -170.69,0 z"
            id="path1" />
    </g>
</svg>
